<svg
   width="675"
   height="400"
   viewBox="0 0 178.59374 105.83334"
   version="1.1"
   id="svg33269"
   xmlns="http://www.w3.org/2000/svg"
   xmlns:svg="http://www.w3.org/2000/svg">
<defs
   id="defs33266" />
<g
   id="layer1">
   <g
      id="g32949"
      transform="matrix(1.493073,0,0,1.493073,-54.119764,-37.49861)">
      <path
         style="fill:#571b4b;fill-opacity:1;stroke:none;stroke-width:0.202574px;stroke-linecap:butt;stroke-linejoin:miter;stroke-opacity:1"
         d="m 76.40612,39.084993 -4.384772,-3.053598 c 0,0 -1.452914,0.959663 -1.680682,1.016599 -0.227767,0.05689 -0.680616,-0.338385 -0.680616,-0.338385 l -27.80934,19.519461 -1.750759,0.331025 -1.13766,-0.254784 -1.38698,0.908354 7.384501,3.496235 0.550966,-0.128835 19.752576,-1.520587 0.448849,0.451465 2.35788,-1.843025 -0.575433,-1.105997 -1.295763,-0.05761 -2.781424,-2.100467 -2.50451,1.553903 -13.298508,1.198414 22.062777,-15.764689 1.70375,0.293464 z"
         id="path32945" />
      <path
         style="fill:#83ffcd;fill-opacity:1;stroke:none;stroke-width:0.202574px;stroke-linecap:butt;stroke-linejoin:miter;stroke-opacity:1"
         d="m 76.022797,38.50952 -4.384772,-3.053598 c 0,0 -1.452914,0.959663 -1.680682,1.016599 -0.227767,0.05689 -0.680616,-0.338385 -0.680616,-0.338385 l -27.80934,19.519461 -1.750759,0.331025 -1.13766,-0.254784 -1.38698,0.908354 7.384501,3.496235 0.550966,-0.128835 19.752576,-1.520587 0.448849,0.451465 2.35788,-1.843025 -0.575433,-1.105997 -1.295763,-0.05761 -2.781424,-2.100467 -2.50451,1.553903 -13.298508,1.198414 22.062777,-15.764689 1.70375,0.293464 z"
         id="path32947" />
   </g>
   <g
      id="g32955"
      transform="matrix(1.493073,0,0,1.493073,-54.119764,-37.49861)">
      <path
         id="path32951"
         style="fill:#571b4b;fill-opacity:1;stroke:none;stroke-width:0.141736px;stroke-linecap:butt;stroke-linejoin:miter;stroke-opacity:1"
         d="m 88.847018,52.239936 1.772187,0.77905 4.300043,-2.879745 -4.452486,-0.0048 z m -6.865879,6.211376 6.794158,-9.985319 8.682674,-0.295231 1.342212,1.931796 -7.924533,4.835897 6.282804,2.759678 -2.224689,1.81684 -7.572076,-3.413463 -4.371414,5.332752 z" />
      <path
         id="path32953"
         style="fill:#83ffcd;fill-opacity:1;stroke:none;stroke-width:0.141736px;stroke-linecap:butt;stroke-linejoin:miter;stroke-opacity:1"
         d="m 88.463695,51.664463 1.772187,0.77905 4.300043,-2.879745 -4.452486,-0.0048 z m -6.865879,6.211376 6.794158,-9.985319 8.682674,-0.295231 1.342212,1.931796 -7.924533,4.835897 6.282804,2.759678 -2.224689,1.81684 -7.572076,-3.413463 -4.371414,5.332752 z" />
   </g>
   <g
      id="g32961"
      transform="matrix(1.493073,0,0,1.493073,-54.119764,-37.49861)">
      <path
         style="fill:#571b4b;fill-opacity:1;stroke:none;stroke-width:0.202574px;stroke-linecap:butt;stroke-linejoin:miter;stroke-opacity:1"
         d="m 66.044755,62.104863 16.049182,-24.796347 0.484762,-0.111252 2.976597,-1.063902 1.288168,-4.464949 -0.40708,6.020703 -7.278859,10.739328 6.62758,-0.262493 1.155383,1.900959 -4.966474,6.438846 -4.945544,1.780747 4.164158,-6.257163 -0.642045,-0.43684 -3.829142,-0.145349 -9.967294,15.588275 z"
         id="path32957" />
      <path
         style="fill:#83ffcd;fill-opacity:1;stroke:none;stroke-width:0.202574px;stroke-linecap:butt;stroke-linejoin:miter;stroke-opacity:1"
         d="m 65.661432,61.52939 16.049182,-24.796347 0.484762,-0.111252 2.976597,-1.063902 1.702853,-4.118017 -0.821765,5.673771 -7.278859,10.739328 6.62758,-0.262493 1.155383,1.900959 -4.966474,6.438846 -4.945544,1.780747 4.164158,-6.257163 -0.642045,-0.43684 -3.829142,-0.145349 -9.967294,15.588275 z"
         id="path32959" />
   </g>
   <g
      id="g32967"
      transform="matrix(1.493073,0,0,1.493073,-54.119764,-37.49861)">
      <path
         style="fill:#571b4b;fill-opacity:1;stroke:none;stroke-width:0.140926px;stroke-linecap:butt;stroke-linejoin:miter;stroke-opacity:1"
         d="m 96.691922,59.118749 6.944978,-12.74093 0.31399,0.246105 -0.16683,1.612121 0.49382,1.70506 -6.000212,10.780173 z"
         id="path32963" />
      <path
         style="fill:#83ffcd;fill-opacity:1;stroke:none;stroke-width:0.140926px;stroke-linecap:butt;stroke-linejoin:miter;stroke-opacity:1"
         d="m 96.308599,58.543276 6.944971,-12.74093 0.66829,-0.186831 -0.52113,2.045057 0.49382,1.70506 -6.000205,10.780173 z"
         id="path32965" />
   </g>
   <g
      id="g32973"
      transform="matrix(1.4815818,0,0,1.4815818,-52.942685,-36.843312)">
      <path
         style="fill:#571b4b;fill-opacity:1;stroke:none;stroke-width:0.179204px;stroke-linecap:butt;stroke-linejoin:miter;stroke-opacity:1"
         d="m 117.20681,47.546089 -10.31463,0.847573 -2.76303,5.774245 7.64439,-0.196107 -1.51141,3.04986 -7.81759,0.02419 1.62267,2.061074 7.60068,-0.480129 3.44051,-6.173949 -7.91414,-0.449257 1.02295,-2.055148 4.22192,-0.161838 0.69646,-0.353119 2.3443,-0.03512 1.13026,-0.415537 z"
         id="path32969" />
      <path
         style="fill:#83ffcd;fill-opacity:1;stroke:none;stroke-width:0.179204px;stroke-linecap:butt;stroke-linejoin:miter;stroke-opacity:1"
         d="m 117.31917,47.455496 -10.38834,0.320516 -2.83864,5.877616 7.31299,-0.113319 -1.61086,2.613489 -7.66053,0.458999 1.62213,2.092929 7.65107,-0.524907 3.72395,-6.496937 -8.31248,0.06529 1.15455,-2.339407 4.08279,-0.198632 0.69646,-0.353119 2.3443,-0.03512 1.29966,-0.07337 z"
         id="path32971" />
   </g>
   <g
      id="g32979"
      transform="matrix(1.493073,0,0,1.493073,-54.119764,-37.49861)">
      <path
         style="fill:#571b4b;fill-opacity:1;stroke:none;stroke-width:0.198971px;stroke-linecap:butt;stroke-linejoin:miter;stroke-opacity:1"
         d="m 95.074458,92.073381 28.447072,-50.318892 -6.35583,0.447171 2.07252,-1.894705 5.40725,-0.676602 3.3011,-5.517911 1.89414,-1.035735 2.32584,-4.368141 -0.39721,2.922772 -0.89108,2.221027 -3.35105,6.03377 3.98185,-0.517542 1.84192,1.876592 -6.97497,0.544628 -27.601966,48.690668 z"
         id="path32975" />
      <path
         style="fill:#83ffcd;fill-opacity:1;stroke:none;stroke-width:0.198971px;stroke-linecap:butt;stroke-linejoin:miter;stroke-opacity:1"
         d="m 94.194129,92.349019 28.944071,-51.170003 -6.35583,0.447171 2.07252,-1.894705 5.40725,-0.676602 3.3011,-5.517911 1.89414,-1.035735 2.92812,-4.303477 -0.99949,2.858108 -0.89108,2.221027 -3.35105,6.03377 3.98185,-0.517542 1.84192,1.876592 -6.97497,0.544628 -27.601959,48.690668 z"
         id="path32977" />
   </g>
   <g
      id="g32985"
      transform="matrix(1.493073,0,0,1.493073,-53.202286,-37.49861)">
      <path
         style="fill:#571b4b;fill-opacity:1;stroke:none;stroke-width:0.140926px;stroke-linecap:butt;stroke-linejoin:miter;stroke-opacity:1"
         d="m 118.56894,58.884257 5.84536,-10.621018 1.69216,0.0024 1.32137,-2.135299 -1.45109,3.934761 -6.60589,10.656756 z"
         id="path32981" />
      <path
         style="fill:#83ffcd;fill-opacity:1;stroke:none;stroke-width:0.140926px;stroke-linecap:butt;stroke-linejoin:miter;stroke-opacity:1"
         d="m 118.2842,58.568239 5.74677,-10.880473 1.69216,0.0024 2.05144,-2.135502 -2.18116,3.934964 -6.11854,10.618913 z"
         id="path32983" />
   </g>
   <g
      id="g32991"
      transform="matrix(1.493073,0,0,1.493073,-54.119764,-37.49861)">
      <path
         style="fill:#571b4b;fill-opacity:1;stroke:none;stroke-width:0.150198px;stroke-linecap:butt;stroke-linejoin:miter;stroke-opacity:1"
         d="m 124.11812,59.009714 6.06475,-11.215103 0.47782,0.820904 0.75054,-0.143941 1.63018,6.144312 3.81474,-6.408357 2.72812,-0.07962 -5.62926,10.508189 -2.2945,0.147345 -1.44458,-5.042091 -3.23352,5.520802 z"
         id="path32987" />
      <path
         style="fill:#83ffcd;fill-opacity:1;stroke:none;stroke-width:0.150198px;stroke-linecap:butt;stroke-linejoin:miter;stroke-opacity:1"
         d="m 123.78314,58.590524 6.0164,-11.371386 0.47782,0.820904 0.75054,-0.143941 1.63018,6.144312 3.81474,-6.408357 2.72812,-0.07962 -5.62926,10.508189 -2.2945,0.147345 -1.44458,-5.042091 -3.04259,5.725204 z"
         id="path32989" />
   </g>
   <g
      id="g32997"
      transform="matrix(1.493073,0,0,1.493073,-52.329182,-37.49861)">
      <path
         style="fill:#571b4b;fill-opacity:1;stroke:none;stroke-width:0.14625px;stroke-linecap:butt;stroke-linejoin:miter;stroke-opacity:1"
         d="m 141.80542,48.149954 -5.75348,8.96095 1.91769,1.580002 10.16629,-2.534973 0.99529,-2.190142 -9.11153,1.911303 1.18113,-2.543933 7.87454,-0.833966 0.86386,-1.71615 -7.49194,0.575743 0.47227,-1.235988 4.1625,-0.182404 0.57994,-0.732337 4.34997,-0.116303 1.00675,-1.127646 z"
         id="path32993" />
      <path
         style="fill:#83ffcd;fill-opacity:1;stroke:none;stroke-width:0.14625px;stroke-linecap:butt;stroke-linejoin:miter;stroke-opacity:1"
         d="m 141.42209,47.574481 -5.75348,8.96095 1.91769,1.580002 10.16629,-2.534973 0.99529,-2.190142 -9.11153,1.911303 1.18113,-2.543933 7.87454,-0.833966 0.86386,-1.71615 -7.49194,0.575743 0.47227,-1.235988 4.1625,-0.182404 0.57994,-0.732337 4.34997,-0.116303 1.00675,-1.127646 z"
         id="path32995" />
   </g>
   <g
      id="g33003"
      transform="matrix(1.493073,0,0,1.493073,-54.119764,-37.49861)">
      <path
         style="fill:#571b4b;fill-opacity:1;stroke:none;stroke-width:0.235413px;stroke-linecap:butt;stroke-linejoin:miter;stroke-opacity:1"
         d="m 71.172711,64.793471 -7.520248,20.703539 0.463995,4.963709 2.5805,-2.954685 2.860655,-0.66413 19.331018,-19.9665 0.181732,-2.854428 2.781172,-4.907471 -24.334804,25.544175 7.562866,-19.041825 2.737309,-1.939133 -1.584139,-1.381397 -6.210807,1.487549 z"
         id="path32999" />
      <path
         style="fill:#83ffcd;fill-opacity:1;stroke:none;stroke-width:0.235413px;stroke-linecap:butt;stroke-linejoin:miter;stroke-opacity:1"
         d="m 70.789388,64.217998 -7.520248,20.703539 0.844917,5.564348 2.199578,-3.555324 2.860655,-0.66413 19.331018,-19.9665 0.181732,-2.854428 3.389834,-4.656788 -24.943466,25.293492 7.562866,-19.041825 2.737309,-1.939133 -1.584139,-1.381397 -6.210807,1.487549 z"
         id="path33001" />
   </g>
   <g
      id="g33009"
      transform="matrix(1.493073,0,0,1.493073,-54.119764,-37.49861)">
      <path
         id="path33005"
         style="fill:#571b4b;fill-opacity:1;stroke:none;stroke-width:0.160458px;stroke-linecap:butt;stroke-linejoin:miter;stroke-opacity:1"
         d="m 90.382215,71.114896 -4.385069,4.546474 3.088147,-0.711457 1.439766,-3.651266 z m -11.120401,10.208928 9.200734,-11.192501 4.955448,-0.113777 -4.444744,12.84677 -0.857954,-3.322394 0.950522,-3.08304 -3.870136,0.787444 -2.634416,3.672987 z" />
      <path
         id="path33007"
         style="fill:#83ffcd;fill-opacity:1;stroke:none;stroke-width:0.160458px;stroke-linecap:butt;stroke-linejoin:miter;stroke-opacity:1"
         d="m 89.998892,70.539423 -4.385069,4.546474 3.088147,-0.711457 1.439766,-3.651266 z m -11.120401,10.208928 9.200734,-11.192501 4.955448,-0.113777 -4.444744,12.84677 -0.857954,-3.322394 0.950522,-3.08304 -3.870136,0.787444 -2.634416,3.672987 z" />
   </g>
   <g
      id="g33015"
      transform="matrix(1.493073,0,0,1.493073,-54.119764,-37.49861)">
      <path
         style="fill:#571b4b;fill-opacity:1;stroke:none;stroke-width:0.137212px;stroke-linecap:butt;stroke-linejoin:miter;stroke-opacity:1"
         d="m 95.870173,72.148116 0.238052,1.236517 -2.018747,5.682191 5.321833,-3.415244 4.731979,-7.682892 0.42983,-0.19923 -0.20383,2.269556 0.34523,1.301548 -5.7436,10.613836 -2.373263,-1.065225 1.047458,-2.412151 -4.720643,3.429219 -1.77518,-1.190356 3.054495,-7.878261 z"
         id="path33011" />
      <path
         style="fill:#83ffcd;fill-opacity:1;stroke:none;stroke-width:0.137212px;stroke-linecap:butt;stroke-linejoin:miter;stroke-opacity:1"
         d="m 95.48685,71.572643 0.238052,1.236517 -2.018747,5.682191 5.321833,-3.415244 4.731972,-7.682892 0.42983,-0.19923 -0.20383,2.269556 0.34523,1.301548 -5.743593,10.613836 -2.373263,-1.065225 1.047458,-2.412151 -4.720643,3.429219 -1.77518,-1.190356 3.054495,-7.878261 z"
         id="path33013" />
   </g>
   <g
      id="g33021"
      transform="matrix(1.493073,0,0,1.493073,-54.119764,-37.49861)">
      <path
         id="path33017"
         style="fill:#571b4b;fill-opacity:1;stroke:none;stroke-width:0.152436px;stroke-linecap:butt;stroke-linejoin:miter;stroke-opacity:1"
         d="m 113.77734,72.120033 4.23669,-0.408071 0.88584,-1.039944 2.25448,-0.178399 -3.70916,6.415826 -6.78914,1.456975 z m -0.79393,-2.203912 -5.90775,9.573711 2.36873,1.605451 10.21938,-3.305808 4.39459,-8.202767 z" />
      <path
         id="path33019"
         style="fill:#83ffcd;fill-opacity:1;stroke:none;stroke-width:0.152436px;stroke-linecap:butt;stroke-linejoin:miter;stroke-opacity:1"
         d="m 113.39401,71.54456 4.23669,-0.408071 0.88584,-1.039944 2.25448,-0.178399 -3.70916,6.415826 -6.78914,1.456975 z m -0.79393,-2.203912 -5.90775,9.573711 2.36873,1.605451 10.21938,-3.305808 4.39459,-8.202767 z" />
   </g>
   <g
      id="g33027"
      transform="matrix(1.493073,0,0,1.493073,-54.119764,-37.49861)">
      <path
         style="fill:#571b4b;fill-opacity:1;stroke:none;stroke-width:0.137212px;stroke-linecap:butt;stroke-linejoin:miter;stroke-opacity:1"
         d="m 127.01216,70.580611 0.23806,1.236517 -2.01874,5.682191 5.32183,-3.415244 2.71116,-4.631543 1.49037,-0.121932 0.34523,1.301548 -4.98715,9.754745 -2.37327,-1.065225 1.04746,-2.412151 -5.36978,3.462294 -1.28772,-1.587073 3.63046,-8.819643 z"
         id="path33023" />
      <path
         style="fill:#83ffcd;fill-opacity:1;stroke:none;stroke-width:0.137212px;stroke-linecap:butt;stroke-linejoin:miter;stroke-opacity:1"
         d="m 126.62883,70.005138 0.23806,1.236517 -2.01874,5.682191 5.32183,-3.415244 2.71116,-4.631543 1.49037,-0.121932 0.34523,1.301548 -4.98715,9.754745 -2.37327,-1.065225 1.04746,-2.412151 -5.36978,3.462294 -1.28772,-1.587073 3.63046,-8.819643 z"
         id="path33025" />
   </g>
   <g
      id="g33033"
      transform="matrix(1.493073,0,0,1.493073,-54.119764,-37.49861)">
      <path
         id="path33029"
         style="fill:#571b4b;fill-opacity:1;stroke:none;stroke-width:0.141736px;stroke-linecap:butt;stroke-linejoin:miter;stroke-opacity:1"
         d="m 138.46657,73.264878 1.77218,0.779062 4.30005,-2.879757 -4.45249,-0.0048 z m -6.86588,6.211376 6.79415,-9.985319 8.68268,-0.29522 1.34221,1.931785 -7.92452,4.835897 6.28279,2.759677 -2.22468,1.816853 -7.57209,-3.413464 -4.3714,5.332753 z" />
      <path
         id="path33031"
         style="fill:#83ffcd;fill-opacity:1;stroke:none;stroke-width:0.141736px;stroke-linecap:butt;stroke-linejoin:miter;stroke-opacity:1"
         d="m 138.08324,72.689405 1.77218,0.779062 4.30005,-2.879757 -4.45249,-0.0048 z m -6.86588,6.211376 6.79415,-9.985319 8.68268,-0.29522 1.34221,1.931785 -7.92452,4.835897 6.28279,2.759677 -2.22468,1.816853 -7.57209,-3.413464 -4.3714,5.332753 z" />
   </g>
</g>
</svg>
